<?xml version="1.0" standalone="no"?>
<!DOCTYPE svg PUBLIC "-//W3C//DTD SVG 20010904//EN"
 "http://www.w3.org/TR/2001/REC-SVG-20010904/DTD/svg10.dtd">
<svg version="1.0" xmlns="http://www.w3.org/2000/svg"
 width="225.000000pt" height="225.000000pt" viewBox="0 0 225.000000 225.000000"
 preserveAspectRatio="xMidYMid meet">
<metadata>
Created by potrace 1.10, written by Peter Selinger 2001-2011
</metadata>
<g transform="translate(0.000000,225.000000) scale(0.100000,-0.100000)"
fill="#000000" stroke="none">
<path d="M870 2106 l0 -93 -32 -8 c-18 -4 -28 -9 -22 -11 6 -3 23 0 37 5 26
10 27 12 27 101 l0 90 95 0 95 0 3 -247 2 -248 3 253 2 252 -105 0 -105 0 0
-94z"/>
<path d="M1133 1948 l1 -253 6 245 c3 135 7 246 8 248 1 1 43 2 92 2 l90 0 0
-95 c0 -52 3 -95 8 -96 26 -2 54 -11 104 -31 39 -15 53 -25 45 -31 -8 -6 -6
-7 6 -3 18 6 107 -32 107 -46 0 -4 5 -8 11 -8 5 0 32 -14 59 -32 36 -23 46
-35 39 -44 -7 -8 -6 -14 1 -19 6 -4 10 -3 9 2 -3 20 2 25 16 13 8 -7 12 -16 9
-21 -3 -5 0 -8 8 -7 7 2 12 -3 10 -10 -1 -8 2 -10 8 -7 14 9 52 -24 43 -38 -4
-6 -1 -7 7 -2 10 6 12 4 7 -8 -4 -10 -2 -16 6 -14 7 1 11 -4 9 -11 -1 -8 1
-11 6 -8 26 16 140 -182 187 -323 24 -74 32 -112 42 -213 l5 -48 -151 0 c-94
0 -151 -4 -151 -10 0 -6 57 -10 150 -10 113 0 150 -3 151 -12 0 -7 4 -3 9 9
23 57 -35 303 -101 425 -11 21 -17 44 -13 50 4 7 3 10 -1 5 -5 -4 -25 19 -45
50 -112 175 -322 333 -532 399 l-58 18 0 93 0 93 -104 0 -105 0 2 -252z"/>
<path d="M720 1961 c-85 -37 -130 -64 -216 -128 -86 -64 -119 -96 -189 -188
-111 -144 -182 -337 -197 -535 l-3 -35 173 -2 c94 0 172 2 172 7 0 4 -46 6
-102 4 -57 -2 -131 -1 -165 2 l-63 6 0 45 c0 24 3 42 8 40 4 -3 8 15 8 39 2
55 22 130 40 145 7 6 11 16 8 23 -3 7 6 37 19 67 13 30 27 62 30 72 4 11 12
15 18 11 7 -4 9 -3 5 4 -14 23 191 262 225 262 6 0 8 4 5 8 -3 5 9 17 27 27
18 10 34 21 37 24 7 9 58 41 65 41 4 0 3 -4 0 -10 -3 -5 -1 -10 5 -10 7 0 10
5 8 12 -4 11 45 45 74 50 7 2 16 7 19 12 4 5 20 9 36 10 16 0 30 7 30 14 0 16
-2 16 -77 -17z"/>
<path d="M784 1781 c-87 -40 -170 -99 -236 -167 -66 -68 -118 -133 -118 -146
0 -5 -5 -6 -10 -3 -6 4 -9 1 -8 -7 2 -7 -3 -12 -10 -10 -8 1 -11 -2 -8 -7 3
-5 -7 -41 -24 -80 -16 -39 -26 -71 -22 -71 4 0 19 31 35 69 35 87 125 210 207
283 57 50 200 135 257 152 21 7 22 4 26 -66 l3 -73 2 78 c2 91 1 92 -94 48z"/>
<path d="M1332 1733 l2 -78 3 73 c4 85 0 84 117 25 97 -48 121 -66 211 -159
84 -85 131 -155 171 -251 13 -32 24 -51 24 -43 0 9 -16 48 -35 89 -19 40 -32
78 -28 83 3 7 1 8 -5 4 -6 -4 -16 4 -23 16 -6 13 -22 35 -35 49 l-24 26 20 18
c20 18 28 9 10 -13 -5 -7 -2 -5 7 3 12 10 14 18 7 25 -7 7 -16 4 -28 -9 -18
-20 -19 -19 -71 32 -60 61 -119 107 -134 107 -6 0 -10 5 -8 12 1 7 -5 12 -13
13 -26 1 -60 16 -60 26 0 6 -4 8 -9 5 -5 -3 -25 1 -45 9 -19 8 -40 15 -46 15
-6 0 -9 -30 -8 -77z"/>
<path d="M1037 1683 c-27 -4 -28 -6 -25 -56 2 -38 7 -53 19 -55 13 -2 15 3 12
23 -5 22 -2 25 21 25 16 0 25 4 21 10 -3 6 -17 10 -31 10 -15 0 -24 6 -24 15
0 8 3 14 8 14 21 -4 42 2 42 11 0 6 -3 9 -7 9 -5 -1 -21 -4 -36 -6z"/>
<path d="M1126 1677 c-26 -19 -24 -67 4 -89 28 -23 35 -23 60 2 27 27 26 65
-2 84 -27 19 -39 20 -62 3z m54 -26 c13 -25 13 -27 -6 -46 -20 -20 -44 -4 -44
30 0 39 32 49 50 16z"/>
<path d="M1237 1623 c-9 -26 -13 -51 -11 -55 7 -10 24 -10 23 0 -1 4 -1 15 0
26 1 15 4 16 15 6 8 -6 16 -21 18 -33 2 -12 11 -23 21 -25 17 -4 18 -2 2 27
-14 29 -14 31 2 32 10 1 21 1 24 1 4 -1 5 8 2 19 -5 17 -55 49 -76 49 -3 0
-12 -21 -20 -47z m66 2 c-4 -15 -36 -12 -41 3 -3 9 3 13 19 10 13 -1 23 -7 22
-13z"/>
<path d="M867 1643 c-4 -3 -7 -15 -7 -25 0 -21 -4 -22 -30 -6 -10 7 -23 8 -27
4 -4 -5 -2 -11 6 -14 19 -6 57 -44 63 -62 2 -8 9 -10 17 -6 9 6 9 11 0 22 -7
9 -9 29 -5 54 6 37 -1 50 -17 33z"/>
<path d="M726 1564 c-22 -21 -20 -50 4 -74 21 -21 55 -26 65 -10 4 6 11 7 17
4 6 -4 8 -2 4 4 -3 5 -1 12 5 14 9 3 9 9 0 26 -14 26 -33 28 -52 5 -13 -15
-12 -16 9 -11 27 7 26 -10 -2 -26 -13 -9 -20 -7 -32 9 -20 26 -14 49 14 53 12
2 22 8 22 13 0 15 -37 10 -54 -7z"/>
<path d="M1440 1571 c0 -5 6 -11 12 -13 9 -3 4 -16 -15 -41 -15 -20 -27 -37
-25 -38 24 -6 37 -6 33 0 -2 4 3 17 11 29 11 17 22 21 42 16 27 -5 27 -5 -8
25 -35 32 -50 38 -50 22z"/>
<path d="M1057 1539 c-43 -4 -98 -14 -122 -24 -25 -9 -50 -13 -57 -9 -7 4 -10
4 -6 -1 5 -5 -15 -24 -43 -43 -164 -110 -249 -298 -222 -488 20 -142 101 -266
224 -347 246 -162 582 -69 713 197 173 352 -96 748 -487 715z m217 -49 c71
-27 162 -95 202 -152 127 -177 135 -375 22 -550 -89 -137 -212 -207 -378 -215
-104 -6 -180 12 -266 63 -64 37 -151 135 -185 207 -104 222 -32 462 183 609
109 75 282 90 422 38z"/>
<path d="M1054 1473 c-13 -14 -32 -48 -41 -74 -15 -40 -21 -47 -43 -46 -33 2
-36 -36 -4 -41 17 -2 21 -8 17 -25 -4 -22 -4 -22 11 -3 9 11 16 14 16 7 0 -7
4 -10 10 -6 5 3 7 12 4 20 -8 20 13 78 37 103 25 28 65 28 81 2 13 -20 38 -28
38 -11 0 5 3 16 6 25 9 23 -48 76 -81 76 -15 0 -36 -11 -51 -27z m90 -9 c36
-36 36 -63 0 -35 -15 12 -33 21 -40 21 -25 0 -73 -54 -88 -100 -8 -25 -15 -36
-15 -25 -1 27 41 114 68 143 28 29 42 28 75 -4z"/>
<path d="M806 1381 c-13 -14 -17 -31 -14 -56 l4 -35 -47 0 -47 0 5 -42 c7 -55
12 -59 53 -48 19 5 52 11 74 15 21 3 42 7 46 10 3 2 22 7 41 10 45 8 52 16 39
49 -7 20 -15 26 -26 22 -9 -3 -24 -6 -35 -6 -16 0 -17 -3 -7 -19 14 -23 -3
-51 -31 -51 -18 0 -56 38 -47 48 3 3 1 11 -5 18 -15 18 -3 80 16 88 8 3 23 3
33 0 9 -3 24 -8 32 -11 10 -3 4 -10 -20 -21 -25 -12 -36 -25 -37 -42 -3 -25
-3 -25 7 -2 9 21 25 31 74 47 19 5 19 6 -2 21 -38 26 -85 29 -106 5z"/>
<path d="M1270 1326 c0 -36 5 -68 10 -71 6 -4 10 15 10 49 0 30 3 61 6 70 4
11 1 16 -10 16 -13 0 -16 -12 -16 -64z"/>
<path d="M1340 1380 c0 -5 14 -10 30 -10 23 0 35 -7 50 -32 14 -23 20 -27 20
-15 0 26 -45 67 -75 67 -14 0 -25 -4 -25 -10z"/>
<path d="M1160 1365 c-11 -13 -8 -20 18 -46 30 -29 32 -30 59 -15 16 9 21 15
13 16 -9 0 -21 -5 -28 -12 -9 -9 -12 -9 -12 0 0 7 4 12 8 12 5 0 17 7 28 16
19 16 13 16 -29 -1 -9 -4 -13 2 -13 17 1 27 -26 35 -44 13z"/>
<path d="M1307 1303 c-5 -68 -4 -76 19 -100 13 -15 27 -37 30 -50 4 -15 13
-23 28 -23 15 0 17 3 7 9 -11 7 -11 9 0 14 8 3 3 6 -11 8 -14 1 4 5 40 8 l65
6 0 54 c0 51 -2 55 -30 64 -16 6 -35 17 -42 26 -10 14 -12 14 -19 -2 -5 -15
-9 -16 -16 -5 -8 10 -9 10 -5 -2 2 -8 13 -14 23 -13 10 1 23 -5 27 -13 5 -8
12 -12 16 -10 4 3 8 0 8 -7 0 -7 4 -20 8 -29 5 -12 3 -18 -6 -18 -11 0 -11 -2
1 -10 12 -8 12 -10 -3 -16 -9 -3 -25 0 -34 7 -15 12 -16 12 -10 -3 10 -26 -7
-22 -42 11 -24 22 -31 37 -29 58 2 15 8 31 13 35 6 4 2 8 -8 8 -21 0 -18 22 4
28 11 3 11 1 -1 -8 -12 -8 -8 -10 19 -7 49 5 48 20 -3 38 l-43 16 -6 -74z"/>
<path d="M846 1281 c-9 -14 5 -42 18 -38 15 5 14 39 -1 44 -6 2 -14 0 -17 -6z"/>
<path d="M1052 1254 c-45 -23 -100 -90 -108 -131 -4 -19 -4 -53 -1 -75 6 -47
54 -121 81 -126 14 -3 9 6 -16 32 -73 75 -72 174 1 247 86 86 218 68 278 -37
26 -45 30 -109 9 -157 -13 -31 -61 -80 -88 -90 -7 -2 -10 -8 -5 -12 10 -12 78
46 102 86 44 75 12 194 -66 246 -52 34 -138 42 -187 17z"/>
<path d="M893 1210 c-12 -5 -31 -7 -43 -5 -21 4 -28 -9 -10 -20 6 -3 10 -14
10 -23 0 -14 -2 -13 -14 3 -8 11 -19 16 -30 12 -18 -7 -22 -32 -6 -42 15 -9
86 13 101 32 13 15 12 15 -8 5 -28 -15 -30 -15 -30 3 0 8 13 17 29 20 15 4 30
11 33 16 7 11 -3 11 -32 -1z"/>
<path d="M1110 1193 c-35 -11 -45 -14 -50 -14 -6 0 -25 -33 -22 -37 1 -1 -4
-15 -13 -31 -14 -29 -11 -96 5 -86 4 2 5 -6 3 -19 -3 -13 0 -27 6 -30 6 -4 11
-16 11 -27 0 -36 97 -77 115 -49 3 6 -3 10 -14 10 -29 0 -26 12 7 33 25 17 25
18 4 14 -18 -4 -21 -3 -12 8 9 10 6 15 -10 20 -16 5 -19 10 -11 18 6 6 11 21
11 34 0 19 -5 23 -30 23 -27 0 -30 3 -30 32 0 40 -9 32 -13 -12 -1 -18 -7 -35
-13 -37 -8 -3 -8 10 0 46 15 65 29 80 53 56 16 -17 18 -17 21 -2 4 17 32 24
32 8 0 -5 14 -12 30 -16 30 -7 36 -24 33 -94 -1 -8 2 -10 9 -3 5 5 10 23 10
39 2 78 -66 138 -132 116z m4 -162 c10 -15 -4 -40 -26 -47 -26 -8 -32 0 -24
31 6 25 38 35 50 16z"/>
<path d="M722 1139 c-47 -14 -61 -50 -37 -95 22 -42 52 -59 135 -78 52 -12 60
-12 60 0 0 8 -8 17 -17 21 -53 17 -106 48 -120 70 -15 23 -15 25 11 51 41 43
34 50 -32 31z m13 -25 c-30 -31 -15 -66 42 -99 63 -36 68 -49 11 -29 -84 29
-123 84 -87 123 11 11 27 21 35 21 13 0 13 -2 -1 -16z"/>
<path d="M1417 1127 c-42 -9 -48 -13 -43 -31 3 -12 6 -31 6 -42 0 -21 1 -21
67 -8 36 8 69 12 72 8 10 -10 -39 -44 -63 -44 -20 1 -20 1 4 15 28 16 19 20
-11 5 -28 -15 -23 -30 9 -30 38 0 69 24 77 61 8 34 -1 51 -15 29 -7 -11 -10
-6 -10 18 0 36 -7 38 -93 19z m60 -38 c2 -21 -13 -26 -20 -6 -4 9 -8 8 -17 -3
-10 -13 -11 -13 -7 2 3 9 1 19 -6 21 -7 2 2 4 18 5 24 0 31 -4 32 -19z"/>
<path d="M1156 1045 c4 -8 9 -15 13 -16 3 0 14 -2 24 -4 21 -4 23 21 1 29 -28
11 -44 7 -38 -9z"/>
<path d="M1367 997 c-8 -21 8 -39 29 -35 27 5 25 42 -2 46 -12 2 -24 -3 -27
-11z"/>
<path d="M815 940 c-3 -5 -3 -15 0 -20 4 -6 -5 -24 -19 -41 -73 -86 30 -157
145 -99 32 17 37 23 27 34 -11 12 -17 12 -41 -1 -16 -8 -40 -12 -55 -9 -15 3
-34 2 -42 -4 -11 -7 0 -10 40 -10 39 0 51 -3 40 -10 -8 -5 -32 -10 -52 -10
-68 0 -96 54 -52 99 11 12 12 11 8 -5 -3 -10 2 -28 10 -39 9 -11 16 -14 16 -7
0 7 13 12 29 12 36 0 61 9 61 21 0 6 -9 5 -20 -1 -25 -13 -85 -9 -84 5 1 6 18
13 38 16 20 3 39 9 43 13 4 4 -12 4 -35 0 -51 -8 -59 11 -12 29 17 6 30 15 30
20 0 4 -4 6 -9 2 -5 -3 -12 -1 -16 5 -8 13 -42 13 -50 0z"/>
<path d="M1386 903 c27 -53 31 -115 9 -133 -19 -15 -73 -16 -88 -1 -8 8 -5 11
11 11 33 0 62 35 62 74 0 40 -8 66 -21 66 -5 0 -4 -12 2 -27 22 -59 -14 -113
-65 -94 -24 10 -24 9 -15 -19 20 -56 139 -52 139 4 0 10 4 15 9 12 5 -3 6 8 2
27 -11 46 -48 127 -59 127 -5 0 1 -21 14 -47z"/>
<path d="M1085 868 c56 -50 119 -65 152 -38 19 15 18 16 -14 37 l-33 22 -17
-23 -17 -22 -43 24 c-24 13 -45 28 -48 33 -4 5 -11 9 -17 9 -6 0 11 -19 37
-42z"/>
<path d="M961 768 c-26 -12 -65 -20 -98 -20 -41 -1 -51 -3 -38 -10 30 -18 185
19 185 43 0 5 -1 9 -2 8 -2 0 -23 -10 -47 -21z"/>
<path d="M1056 761 c-4 -6 -13 -8 -21 -4 -9 3 -15 -1 -15 -10 0 -20 -80 -42
-152 -42 -32 0 -58 -3 -58 -7 0 -13 123 -8 165 7 21 8 40 13 41 12 1 -1 9 -16
17 -33 33 -64 107 -48 146 32 11 24 16 44 11 44 -6 0 -10 -4 -10 -10 0 -5 -6
-7 -13 -4 -7 2 -22 -4 -32 -16 -32 -35 -105 -21 -74 16 6 8 9 17 6 20 -3 3 -8
1 -11 -5z m114 -30 c0 -5 -12 -23 -26 -40 -39 -47 -93 -38 -109 18 l-7 24 23
-22 c30 -27 51 -27 86 4 32 28 33 28 33 16z"/>
<path d="M1497 1473 c-39 -35 -43 -58 -6 -35 17 11 24 11 36 0 13 -11 13 -14
-6 -29 -13 -11 -17 -20 -11 -24 6 -3 24 8 41 24 17 17 35 29 40 25 5 -3 9 -1
9 5 0 17 -20 23 -35 11 -12 -10 -18 -10 -30 0 -14 12 -14 15 0 30 31 34 0 28
-38 -7z"/>
<path d="M630 1480 c-25 -25 -25 -31 1 -64 26 -33 62 -34 83 -1 19 28 10 57
-24 75 -27 14 -37 13 -60 -10z m65 -41 c0 -17 -6 -24 -19 -24 -23 0 -41 27
-33 48 10 26 52 6 52 -24z"/>
<path d="M1573 1388 l-43 -29 22 -33 c12 -18 27 -33 34 -33 14 0 10 12 -14 39
-25 30 -2 43 25 13 14 -14 28 -24 31 -21 3 3 -3 15 -13 26 -14 15 -16 23 -7
32 8 8 14 4 23 -15 7 -15 18 -27 26 -27 11 0 10 6 -4 31 -27 47 -35 48 -80 17z"/>
<path d="M546 1361 c-6 -10 57 -51 88 -57 10 -2 16 0 12 3 -3 4 0 16 8 29 20
29 6 41 -15 13 l-16 -22 -36 22 c-19 12 -38 17 -41 12z"/>
<path d="M515 1294 c-24 -24 -15 -66 17 -84 34 -18 58 -7 73 35 8 23 6 30 -14
46 -29 23 -54 24 -76 3z m72 -31 c3 -8 -1 -21 -9 -30 -13 -12 -20 -13 -37 -3
-21 11 -25 39 -7 51 13 10 47 -2 53 -18z"/>
<path d="M373 1273 c20 -2 54 -2 75 0 20 2 3 4 -38 4 -41 0 -58 -2 -37 -4z"/>
<path d="M1643 1273 c42 -2 112 -2 155 0 42 1 7 3 -78 3 -85 0 -120 -2 -77 -3z"/>
<path d="M1685 1217 c-9 -14 -30 -30 -47 -36 -39 -14 -31 -22 24 -26 24 -1 52
-6 62 -10 14 -6 17 -5 12 4 -5 7 -20 17 -34 22 l-27 10 22 17 c15 12 20 21 14
31 -7 11 -12 8 -26 -12z"/>
<path d="M470 1170 c0 -5 16 -10 36 -10 41 0 38 -15 -5 -25 -49 -11 -46 -32 6
-40 25 -4 52 -9 59 -12 10 -4 12 0 8 10 -3 9 -20 18 -37 20 l-32 3 35 14 c19
8 38 13 42 12 4 -1 5 4 2 12 -8 21 -114 36 -114 16z"/>
<path d="M1642 1098 c-19 -19 -15 -66 7 -78 41 -21 91 2 91 43 0 39 -69 64
-98 35z m74 -23 c8 -20 -13 -45 -38 -45 -21 0 -33 22 -24 45 7 20 55 19 62 0z"/>
<path d="M460 1046 c0 -8 10 -13 22 -12 14 1 24 -6 26 -16 2 -13 -3 -18 -17
-18 -22 0 -36 -15 -23 -24 14 -9 112 6 106 15 -3 5 -16 9 -30 9 -17 0 -24 5
-24 20 0 16 7 20 31 20 17 0 28 4 24 10 -10 16 -115 13 -115 -4z"/>
<path d="M203 1013 c54 -2 139 -2 190 0 51 1 7 3 -98 3 -104 0 -146 -2 -92 -3z"/>
<path d="M116 958 c32 -240 123 -438 271 -593 26 -27 46 -54 45 -60 -2 -5 0
-7 4 -2 4 4 19 -3 33 -16 34 -31 160 -117 173 -117 5 0 7 -4 4 -9 -3 -5 0 -8
7 -7 6 0 48 -13 92 -31 93 -36 213 -63 284 -63 l50 0 3 100 3 100 -33 0 c-50
0 -171 27 -240 54 -187 74 -333 216 -426 417 l-35 74 72 6 72 5 -83 2 c-76 2
-81 1 -72 -15 23 -40 74 -159 73 -170 0 -7 3 -11 7 -8 4 2 17 -13 28 -34 27
-47 168 -190 200 -202 14 -5 20 -14 16 -21 -4 -7 -3 -8 5 -4 6 4 24 -2 40 -14
59 -42 252 -100 332 -100 l29 0 0 -91 0 -92 -72 6 c-40 3 -113 17 -163 32 -90
26 -209 78 -200 87 3 2 -1 5 -9 5 -53 0 -320 251 -321 303 -1 8 -7 14 -14 12
-8 -2 -11 3 -8 12 4 9 2 15 -4 13 -9 -2 -16 9 -57 88 -37 73 -83 228 -89 303
-3 39 -10 72 -15 72 -4 0 -6 -19 -2 -42z"/>
<path d="M1633 978 c-16 -21 -22 -44 -14 -57 9 -15 111 -43 111 -30 0 13 -35
29 -64 29 -20 0 -26 5 -26 21 0 20 4 21 50 15 42 -6 49 -4 44 9 -4 8 -18 15
-34 15 -16 0 -35 2 -43 5 -7 3 -18 0 -24 -7z"/>
<path d="M540 941 c0 -5 7 -11 15 -15 23 -9 18 -35 -9 -42 -30 -7 -48 2 -44
24 1 10 -2 18 -7 20 -6 1 -11 -8 -13 -22 -4 -35 35 -60 71 -47 31 12 45 54 27
76 -14 16 -40 20 -40 6z"/>
<path d="M1600 879 c0 -5 14 -16 32 -23 l31 -14 -41 -7 c-23 -4 -42 -11 -42
-15 0 -9 84 -50 102 -50 17 0 -4 21 -35 34 l-32 14 30 3 c17 1 36 2 43 2 7 -1
12 6 10 14 -3 18 -98 58 -98 42z"/>
<path d="M595 843 c17 -41 17 -53 2 -53 -9 0 -19 9 -22 20 -3 11 -11 20 -16
20 -12 0 -11 -7 1 -30 7 -13 7 -21 0 -25 -5 -3 -15 5 -22 19 -6 14 -17 26 -24
26 -12 0 -5 -20 23 -69 2 -3 92 27 101 34 6 5 -32 75 -41 75 -5 0 -6 -8 -2
-17z"/>
<path d="M1536 748 c-21 -30 -20 -45 4 -58 15 -8 21 -6 30 10 9 17 9 21 -4 18
-14 -3 -16 0 -16 22 0 17 49 11 59 -8 11 -21 4 -36 -24 -46 -19 -7 -19 -8 -1
-18 15 -9 22 -6 37 13 25 32 24 55 -3 73 -32 22 -64 20 -82 -6z"/>
<path d="M625 726 c-22 -18 -33 -21 -43 -14 -21 18 -22 4 0 -30 11 -17 27 -32
35 -32 13 0 13 3 3 15 -16 19 0 40 36 49 14 4 24 12 22 18 -7 20 -22 19 -53
-6z"/>
<path d="M710 615 c-19 -23 -3 -55 30 -55 32 0 41 15 29 48 -9 25 -41 29 -59
7z"/>
<path d="M1446 607 c-36 -26 4 -85 42 -61 19 13 19 54 -1 66 -16 11 -20 10
-41 -5z"/>
<path d="M842 518 l-21 -49 25 -9 c36 -14 49 -12 68 9 27 29 17 70 -20 86
l-31 13 -21 -50z m66 2 c4 -23 -23 -54 -41 -47 -13 5 -14 11 -4 37 12 32 39
38 45 10z"/>
<path d="M1298 551 c-39 -16 -54 -37 -19 -26 15 4 22 -3 35 -35 9 -22 20 -40
26 -40 14 0 12 20 -5 50 -18 32 -18 40 0 40 16 0 21 16 8 23 -5 2 -25 -3 -45
-12z"/>
<path d="M1132 293 l-2 -243 477 0 c262 0 474 2 471 5 -2 3 -214 6 -469 7
l-464 3 -5 235 -6 235 -2 -242z"/>
<path d="M1010 503 c0 -10 -3 -35 -7 -56 l-6 -38 44 3 44 3 2 46 c2 41 -1 48
-20 53 -39 10 -57 7 -57 -11z m58 -60 c2 -8 -5 -13 -17 -13 -21 0 -35 13 -24
24 10 10 36 3 41 -11z"/>
<path d="M1180 470 c6 -50 15 -69 26 -57 11 11 -7 107 -20 107 -9 0 -11 -14
-6 -50z"/>
<path d="M1332 348 l-2 -98 380 0 379 0 4 -102 3 -103 2 108 2 107 -380 0
-379 0 -4 93 -3 92 -2 -97z"/>
</g>
</svg>
