<?xml version="1.0" standalone="no"?>
<!DOCTYPE svg PUBLIC "-//W3C//DTD SVG 20010904//EN"
 "http://www.w3.org/TR/2001/REC-SVG-20010904/DTD/svg10.dtd">
<svg version="1.0" xmlns="http://www.w3.org/2000/svg"
 width="200.000000pt" height="200.000000pt" viewBox="0 0 200.000000 200.000000"
 preserveAspectRatio="xMidYMid meet">
<metadata>
Created by potrace 1.10, written by Peter Selinger 2001-2011
</metadata>
<g transform="translate(0.000000,200.000000) scale(0.100000,-0.100000)"
fill="#000000" stroke="none">
<path d="M67 1232 c-25 -28 -24 -172 1 -195 26 -24 173 -24 196 -1 25 24 23
175 -2 197 -28 25 -172 24 -195 -1z m163 -14 c0 -5 5 -6 12 -2 6 4 8 3 4 -4
-3 -6 -2 -13 4 -17 5 -3 9 -35 8 -70 -1 -35 -5 -62 -9 -59 -4 2 -12 -3 -19
-11 -6 -7 -17 -12 -24 -9 -7 3 -31 1 -54 -4 -23 -6 -40 -6 -37 -2 3 4 -4 10
-15 13 -21 5 -23 14 -21 102 0 30 6 54 14 60 17 12 137 15 137 3z"/>
<path d="M337 1232 c-24 -26 -24 -173 -1 -196 24 -25 175 -23 197 2 25 28 24
172 -1 195 -28 25 -172 24 -195 -1z m173 -12 c10 -6 15 -28 17 -66 1 -62 -11
-101 -36 -109 -46 -14 -121 -4 -121 15 0 5 -6 7 -13 4 -10 -4 -14 6 -15 38 -2
73 7 104 31 115 28 13 117 15 137 3z"/>
<path d="M644 1241 c-2 -2 -4 -13 -4 -23 0 -15 9 -18 62 -18 l62 0 -67 -68
c-42 -43 -67 -76 -67 -90 0 -21 3 -22 109 -22 l108 0 -4 25 c-5 22 -11 24 -64
27 l-59 3 60 60 c40 40 59 68 60 85 0 25 0 25 -96 25 -53 0 -98 -2 -100 -4z"/>
<path d="M880 1133 l0 -113 90 0 c89 0 90 0 90 25 0 24 -3 25 -60 25 -57 0
-60 1 -60 25 0 24 3 25 55 25 48 0 55 2 55 20 0 18 -7 20 -55 20 -48 0 -55 2
-55 20 0 18 7 20 60 20 56 0 60 2 60 23 0 21 -3 22 -90 22 l-90 0 0 -112z"/>
<path d="M1100 1162 c0 -79 2 -85 29 -113 25 -24 37 -29 81 -29 41 0 56 5 75
25 22 22 25 32 25 105 0 44 0 83 0 87 0 4 -14 7 -32 7 l-31 0 2 -75 c2 -85
-10 -106 -54 -95 -24 6 -25 9 -25 89 l0 82 -35 0 -35 0 0 -83z"/>
<path d="M1386 1229 c-21 -16 -26 -28 -24 -53 3 -27 9 -34 53 -51 72 -29 78
-34 64 -51 -17 -20 -47 -17 -59 6 -7 13 -21 20 -40 20 -37 0 -39 -21 -5 -55
50 -51 175 -22 175 41 0 44 -18 63 -76 80 -55 16 -68 36 -26 42 13 2 25 -3 28
-12 4 -10 18 -16 40 -16 30 0 33 2 25 23 -18 48 -108 63 -155 26z"/>
<path d="M67 962 c-25 -28 -24 -172 1 -195 26 -24 173 -24 196 -1 25 24 23
175 -2 197 -28 25 -172 24 -195 -1z m170 -22 c3 -11 9 -20 13 -20 4 0 8 -30 9
-66 1 -37 -3 -63 -8 -60 -5 3 -11 -1 -15 -9 -4 -12 -19 -14 -73 -10 -83 7 -93
17 -91 97 2 74 18 88 101 88 50 0 60 -3 64 -20z"/>
<path d="M354 946 c-29 -29 -34 -41 -34 -81 0 -40 5 -52 34 -81 29 -29 41 -34
81 -34 40 0 52 5 81 34 29 29 34 41 34 81 0 40 -5 52 -34 81 -29 29 -41 34
-81 34 -40 0 -52 -5 -81 -34z m126 -23 c12 -16 18 -21 14 -13 -7 13 -5 13 9 1
19 -15 24 -36 6 -26 -6 4 -5 -1 2 -13 14 -23 5 -57 -13 -46 -7 5 -9 2 -5 -9 6
-17 -11 -28 -59 -33 -22 -3 -36 2 -52 19 -24 26 -38 87 -20 87 6 0 8 3 5 7 -4
3 1 12 11 20 9 8 11 11 3 7 -9 -5 -12 -3 -7 5 4 6 11 9 16 6 5 -3 11 -1 15 5
12 20 53 10 75 -17z"/>
<path d="M638 865 l3 -115 60 0 c74 0 78 23 6 28 l-47 3 0 100 c0 72 -3 99
-12 99 -10 0 -12 -28 -10 -115z"/>
<path d="M785 865 l0 -115 73 0 c59 0 72 3 72 16 0 13 -10 15 -60 12 l-60 -3
0 43 0 43 52 -2 c33 -2 53 1 56 9 2 8 -13 12 -52 12 l-56 0 0 38 0 37 55 -3
c45 -3 55 -1 55 12 0 13 -12 16 -67 16 l-68 0 0 -115z"/>
<path d="M1010 973 c0 -4 -16 -56 -34 -115 -26 -82 -31 -108 -20 -108 7 0 17
15 22 33 7 29 12 32 49 35 39 3 42 1 53 -32 6 -20 18 -36 25 -36 20 0 -57 224
-79 228 -9 2 -16 0 -16 -5z m44 -110 c7 -21 4 -23 -27 -23 l-34 0 16 55 16 54
11 -32 c6 -18 14 -42 18 -54z"/>
<path d="M1140 865 c0 -85 3 -115 13 -115 8 0 11 15 8 51 l-3 50 33 -3 c28 -3
37 -10 58 -50 14 -27 31 -48 38 -48 19 0 16 10 -15 59 l-28 44 23 23 c51 51
14 104 -72 104 l-55 0 0 -115z m112 77 c5 -5 8 -20 6 -33 -3 -21 -9 -24 -50
-27 l-48 -3 0 40 0 40 41 -4 c23 -2 46 -8 51 -13z"/>
<path d="M1330 865 c0 -70 4 -115 10 -115 6 0 10 38 10 93 l0 92 51 -92 c69
-126 79 -123 79 22 0 98 -2 115 -16 115 -13 0 -15 -13 -12 -85 2 -47 1 -85 -2
-85 -3 0 -25 38 -50 85 -25 47 -51 85 -57 85 -10 0 -13 -30 -13 -115z"/>
<path d="M1520 865 c0 -96 3 -115 15 -115 12 0 15 19 15 115 0 96 -3 115 -15
115 -12 0 -15 -19 -15 -115z"/>
<path d="M1590 865 c0 -99 2 -115 16 -115 14 0 15 12 10 90 -3 50 -3 90 -1 90
2 0 25 -40 52 -90 26 -49 53 -90 60 -90 10 0 13 29 13 115 0 85 -3 115 -12
115 -10 0 -12 -24 -10 -92 l3 -93 -53 92 c-29 51 -59 93 -65 93 -10 0 -13 -30
-13 -115z"/>
<path d="M1814 957 c-23 -20 -28 -34 -32 -84 -4 -55 -2 -63 24 -92 32 -36 77
-44 119 -21 21 11 25 21 25 62 l0 48 -40 0 c-29 0 -40 -4 -40 -15 0 -10 10
-15 30 -15 25 0 30 -4 30 -25 0 -45 -72 -62 -105 -25 -26 29 -26 111 -1 139
26 28 82 29 91 1 3 -11 13 -20 21 -20 19 0 18 13 -7 44 -27 34 -77 35 -115 3z"/>
</g>
</svg>
